<svg width="88" height="89" viewBox="0 0 88 89" fill="none" xmlns="http://www.w3.org/2000/svg">
  <g filter="url(#filter0_d_1465_17193)">
    <rect x="20" y="20.1803" width="48" height="48" fill="url(#paint0_linear_1465_17193)" shape-rendering="crispEdges"/>
    <rect x="20.5" y="20.6803" width="47" height="47" stroke="url(#paint1_linear_1465_17193)"
          shape-rendering="crispEdges"/>
    <path
      d="M53 41.3239V37.046C53 35.7174 52.3976 35.1803 50.9012 35.1803H47.0988C45.6024 35.1803 45 35.7174 45 37.046V41.3145C45 42.6525 45.6024 43.1802 47.0988 43.1802H50.9012C52.3976 43.1896 53 42.6525 53 41.3239Z"
      fill="white"/>
    <path
      d="M53 51.0815V47.2791C53 45.7827 52.3976 45.1803 50.9012 45.1803H47.0988C45.6024 45.1803 45 45.7827 45 47.2791V51.0815C45 52.5779 45.6024 53.1803 47.0988 53.1803H50.9012C52.3976 53.1803 53 52.5779 53 51.0815Z"
      fill="white"/>
    <path
      d="M43 41.3239V37.046C43 35.7174 42.3976 35.1803 40.9012 35.1803H37.0988C35.6024 35.1803 35 35.7174 35 37.046V41.3145C35 42.6525 35.6024 43.1802 37.0988 43.1802H40.9012C42.3976 43.1896 43 42.6525 43 41.3239Z"
      fill="white"/>
    <path
      d="M43 51.0815V47.2791C43 45.7827 42.3976 45.1803 40.9012 45.1803H37.0988C35.6024 45.1803 35 45.7827 35 47.2791V51.0815C35 52.5779 35.6024 53.1803 37.0988 53.1803H40.9012C42.3976 53.1803 43 52.5779 43 51.0815Z"
      fill="white"/>
  </g>
  <defs>
    <filter id="filter0_d_1465_17193" x="0" y="0.180298" width="88" height="88" filterUnits="userSpaceOnUse"
            color-interpolation-filters="sRGB">
      <feFlood flood-opacity="0" result="BackgroundImageFix"/>
      <feColorMatrix in="SourceAlpha" type="matrix" values="0 0 0 0 0 0 0 0 0 0 0 0 0 0 0 0 0 0 127 0"
                     result="hardAlpha"/>
      <feOffset/>
      <feGaussianBlur stdDeviation="10"/>
      <feComposite in2="hardAlpha" operator="out"/>
      <feColorMatrix type="matrix" values="0 0 0 0 0 0 0 0 0 0 0 0 0 0 0 0 0 0 0.6 0"/>
      <feBlend mode="normal" in2="BackgroundImageFix" result="effect1_dropShadow_1465_17193"/>
      <feBlend mode="normal" in="SourceGraphic" in2="effect1_dropShadow_1465_17193" result="shape"/>
    </filter>
    <linearGradient id="paint0_linear_1465_17193" x1="-13.3765" y1="20.1803" x2="-13.3765" y2="68.1803"
                    gradientUnits="userSpaceOnUse">
      <stop offset="0.0001" stop-color="#1F42A9" stop-opacity="0.65"/>
      <stop offset="0.246666" stop-color="#3064FE" stop-opacity="0.65"/>
      <stop offset="0.486666" stop-color="#3064FE" stop-opacity="0.85"/>
      <stop offset="0.735" stop-color="#3064FE" stop-opacity="0.65"/>
      <stop offset="1" stop-color="#1F42A9" stop-opacity="0.65"/>
    </linearGradient>
    <linearGradient id="paint1_linear_1465_17193" x1="44" y1="20.1803" x2="44" y2="68.1803"
                    gradientUnits="userSpaceOnUse">
      <stop stop-color="#3064FE"/>
      <stop offset="0.515625" stop-color="#CDD9FF"/>
      <stop offset="1" stop-color="#3064FE"/>
    </linearGradient>
  </defs>
</svg>
