<svg width="24" height="24" viewBox="0 0 24 24" fill="none" xmlns="http://www.w3.org/2000/svg">
  <path
    d="M1.5 21.375C1.5 21.6734 1.61853 21.9595 1.8295 22.1705C2.04048 22.3815 2.32663 22.5 2.625 22.5H21.375C21.6734 22.5 21.9595 22.3815 22.1705 22.1705C22.3815 21.9595 22.5 21.6734 22.5 21.375V9H1.5V21.375Z"
    fill="url(#paint0_linear_1474_332)"/>
  <path
    d="M22.5 4.11422C22.4998 3.96704 22.4705 3.82135 22.4138 3.68554C22.357 3.54974 22.274 3.4265 22.1694 3.32293C22.0649 3.21936 21.9408 3.13751 21.8045 3.08208C21.6681 3.02666 21.5222 2.99876 21.375 3H18.7537V1.5H16.5037V3H7.49625V1.5H5.24625V3H2.625C2.47783 2.99876 2.33186 3.02666 2.19551 3.08208C2.05917 3.13751 1.93514 3.21936 1.83057 3.32293C1.72599 3.4265 1.64295 3.54974 1.58622 3.68554C1.52948 3.82135 1.50018 3.96704 1.5 4.11422V6.75H22.5V4.11422Z"
    fill="url(#paint1_linear_1474_332)"/>
  <defs>
    <linearGradient id="paint0_linear_1474_332" x1="12" y1="1.5" x2="12" y2="22.5" gradientUnits="userSpaceOnUse">
      <stop stop-color="#59B9FF"/>
      <stop offset="1" stop-color="#3064FE"/>
    </linearGradient>
    <linearGradient id="paint1_linear_1474_332" x1="12" y1="1.5" x2="12" y2="22.5" gradientUnits="userSpaceOnUse">
      <stop stop-color="#59B9FF"/>
      <stop offset="1" stop-color="#3064FE"/>
    </linearGradient>
  </defs>
</svg>
