<svg width="240" height="240" viewBox="0 0 240 240" fill="none" xmlns="http://www.w3.org/2000/svg">
  <g id="Progress Bar">
    <path id="Ellipse 69"
          d="M191.562 161.316C194.055 162.756 197.259 161.907 198.549 159.333C204.652 147.144 207.846 133.679 207.846 120C207.846 106.321 204.652 92.8555 198.549 80.6669C197.259 78.0922 194.055 77.2439 191.562 78.6837C189.068 80.1234 188.231 83.3053 189.5 85.8903C194.699 96.4853 197.419 108.151 197.419 120C197.419 131.848 194.699 143.514 189.5 154.109C188.231 156.694 189.068 159.876 191.562 161.316Z"
          fill="#22234B"/>
    <path id="Ellipse 71"
          d="M196.443 88.6235C199.107 87.5301 200.394 84.4762 199.145 81.8819C193.649 70.4719 185.742 60.3653 175.947 52.2735C164.809 43.073 151.574 36.7613 137.415 33.8974C123.255 31.0335 108.608 31.7059 94.7699 35.8549C80.9322 40.004 68.3313 47.5017 58.0834 57.6839C47.8355 67.8661 40.2569 80.4185 36.0189 94.2293C31.7809 108.04 31.0143 122.683 33.7871 136.86C36.5599 151.038 42.7864 164.313 51.9151 175.51C59.9437 185.357 69.9992 193.329 81.3736 198.898C83.9598 200.164 87.022 198.897 88.1324 196.24C89.2429 193.583 87.9799 190.545 85.4039 189.258C75.6073 184.365 66.9417 177.439 59.9969 168.921C51.9518 159.053 46.4644 147.354 44.0208 134.859C41.5772 122.364 42.2527 109.46 45.9877 97.2883C49.7226 85.1169 56.4016 74.0545 65.433 65.081C74.4645 56.1075 85.5696 49.4997 97.7647 45.8432C109.96 42.1866 122.869 41.5941 135.347 44.118C147.826 46.6419 159.49 52.2045 169.306 60.3129C177.779 67.3123 184.649 76.0223 189.479 85.8501C190.749 88.4343 193.779 89.7169 196.443 88.6235Z"
          fill="url(#paint0_linear_1465_3131)"/>
  </g>
  <defs>
    <linearGradient id="paint0_linear_1465_3131" x1="103.84" y1="42.5131" x2="35.0551" y2="132.016"
                    gradientUnits="userSpaceOnUse">
      <stop stop-color="#3064FE"/>
      <stop offset="1" stop-color="#3064FE" stop-opacity="0"/>
    </linearGradient>
  </defs>
</svg>
